<svg width="56" height="19" viewBox="0 0 56 19" fill="none" xmlns="http://www.w3.org/2000/svg">
<path d="M4.03906 0.9375V18H0.523438V0.9375H4.03906ZM10.8359 8.22656V10.9688H3.07812V8.22656H10.8359ZM11.6562 0.9375V3.69141H3.07812V0.9375H11.6562ZM24.6641 15.2578V18H16.0742V15.2578H24.6641ZM17.2109 0.9375V18H13.6953V0.9375H17.2109ZM39.9219 9.07031V9.87891C39.9219 11.1758 39.7461 12.3398 39.3945 13.3711C39.043 14.4023 38.5469 15.2812 37.9062 16.0078C37.2656 16.7266 36.5 17.2773 35.6094 17.6602C34.7266 18.043 33.7461 18.2344 32.668 18.2344C31.5977 18.2344 30.6172 18.043 29.7266 17.6602C28.8438 17.2773 28.0781 16.7266 27.4297 16.0078C26.7812 15.2812 26.2773 14.4023 25.918 13.3711C25.5664 12.3398 25.3906 11.1758 25.3906 9.87891V9.07031C25.3906 7.76562 25.5664 6.60156 25.918 5.57812C26.2695 4.54688 26.7656 3.66797 27.4062 2.94141C28.0547 2.21484 28.8203 1.66016 29.7031 1.27734C30.5938 0.894531 31.5742 0.703125 32.6445 0.703125C33.7227 0.703125 34.7031 0.894531 35.5859 1.27734C36.4766 1.66016 37.2422 2.21484 37.8828 2.94141C38.5312 3.66797 39.0312 4.54688 39.3828 5.57812C39.7422 6.60156 39.9219 7.76562 39.9219 9.07031ZM36.3711 9.87891V9.04688C36.3711 8.14062 36.2891 7.34375 36.125 6.65625C35.9609 5.96875 35.7188 5.39062 35.3984 4.92188C35.0781 4.45312 34.6875 4.10156 34.2266 3.86719C33.7656 3.625 33.2383 3.50391 32.6445 3.50391C32.0508 3.50391 31.5234 3.625 31.0625 3.86719C30.6094 4.10156 30.2227 4.45312 29.9023 4.92188C29.5898 5.39062 29.3516 5.96875 29.1875 6.65625C29.0234 7.34375 28.9414 8.14062 28.9414 9.04688V9.87891C28.9414 10.7773 29.0234 11.5742 29.1875 12.2695C29.3516 12.957 29.5938 13.5391 29.9141 14.0156C30.2344 14.4844 30.625 14.8398 31.0859 15.082C31.5469 15.3242 32.0742 15.4453 32.668 15.4453C33.2617 15.4453 33.7891 15.3242 34.25 15.082C34.7109 14.8398 35.0977 14.4844 35.4102 14.0156C35.7227 13.5391 35.9609 12.957 36.125 12.2695C36.2891 11.5742 36.3711 10.7773 36.3711 9.87891ZM52.3438 12.3398H55.8477C55.7773 13.4883 55.4609 14.5078 54.8984 15.3984C54.3438 16.2891 53.5664 16.9844 52.5664 17.4844C51.5742 17.9844 50.3789 18.2344 48.9805 18.2344C47.8867 18.2344 46.9062 18.0469 46.0391 17.6719C45.1719 17.2891 44.4297 16.7422 43.8125 16.0312C43.2031 15.3203 42.7383 14.4609 42.418 13.4531C42.0977 12.4453 41.9375 11.3164 41.9375 10.0664V8.88281C41.9375 7.63281 42.1016 6.50391 42.4297 5.49609C42.7656 4.48047 43.2422 3.61719 43.8594 2.90625C44.4844 2.19531 45.2305 1.64844 46.0977 1.26562C46.9648 0.882812 47.9336 0.691406 49.0039 0.691406C50.4258 0.691406 51.625 0.949219 52.6016 1.46484C53.5859 1.98047 54.3477 2.69141 54.8867 3.59766C55.4336 4.50391 55.7617 5.53516 55.8711 6.69141H52.3555C52.3164 6.00391 52.1797 5.42188 51.9453 4.94531C51.7109 4.46094 51.3555 4.09766 50.8789 3.85547C50.4102 3.60547 49.7852 3.48047 49.0039 3.48047C48.418 3.48047 47.9062 3.58984 47.4688 3.80859C47.0312 4.02734 46.6641 4.35938 46.3672 4.80469C46.0703 5.25 45.8477 5.8125 45.6992 6.49219C45.5586 7.16406 45.4883 7.95312 45.4883 8.85938V10.0664C45.4883 10.9492 45.5547 11.7266 45.6875 12.3984C45.8203 13.0625 46.0234 13.625 46.2969 14.0859C46.5781 14.5391 46.9375 14.8828 47.375 15.1172C47.8203 15.3438 48.3555 15.457 48.9805 15.457C49.7148 15.457 50.3203 15.3398 50.7969 15.1055C51.2734 14.8711 51.6367 14.5234 51.8867 14.0625C52.1445 13.6016 52.2969 13.0273 52.3438 12.3398Z" fill="black"/>
</svg>
